# xmcd
#
# Track frame offsets:
#	150
#	15474
#	29356
#	42553
#	56164
#	70521
#	83763
#	95985
#	107567
#	117853
#	132071
#	143546
#	156094
#	168664
#	182149
#	196732
#	210798
#
# Disc length: 2964 seconds
#
# Revision: 0
# Processed by: cddbd v1.5.2PL0 Copyright (c) Steve Scherf et al.
# Submitted via: audiograbber 1.83.01
#
DISCID=de0b9211
DTITLE=Muddy Waters - Blues Archive_12_CD1
DYEAR=1940
DGENRE=Blues
TTITLE0=I Feel Like Going Home (1941)
TTITLE1=Little Anna Mea (1942)
TTITLE2=Train Fare Home Blues (1942)
TTITLE3=Little Geneva (1942)
TTITLE4=Rollin' And Tumblin' (1942)
TTITLE5=Streamline Woman (1942)
TTITLE6=Rolling Stone (1942)
TTITLE7=You Gonna Miss Me (1942)
TTITLE8=Country Blues (1942)
TTITLE9=I Be's Troubled (1942)
TTITLE10=Burr Clover Farm Blues (1942)
TTITLE11=Take A Walk With Me (1942)
TTITLE12=Burr Clover Blues (1942)
TTITLE13=Walkin' Blues (1942)
TTITLE14=I Can't Be Satisfied (1942)
TTITLE15=Gypsy Woman (1942)
TTITLE16=Mean Read Spider (1942)
EXTD=
EXTT0=by cml Ledeburgh 2018
EXTT1=
EXTT2=
EXTT3=
EXTT4=
EXTT5=
EXTT6=
EXTT7=
EXTT8=
EXTT9=
EXTT10=
EXTT11=
EXTT12=
EXTT13=
EXTT14=
EXTT15=
EXTT16=
PLAYORDER=
